<svg width="28" height="29" viewBox="0 0 28 29" fill="none" xmlns="http://www.w3.org/2000/svg">
<path d="M14 1.8125C7.23516 1.8125 1.75 7.49356 1.75 14.5C1.75 21.5064 7.23516 27.1875 14 27.1875C20.7648 27.1875 26.25 21.5064 26.25 14.5C26.25 7.49356 20.7648 1.8125 14 1.8125ZM14 25.0352C8.38359 25.0352 3.82812 20.317 3.82812 14.5C3.82812 8.68301 8.38359 3.96484 14 3.96484C19.6164 3.96484 24.1719 8.68301 24.1719 14.5C24.1719 20.317 19.6164 25.0352 14 25.0352Z" fill="white"/>
<path d="M18.777 18.0854L14.8777 15.1655V8.15625C14.8777 8.03164 14.7793 7.92969 14.659 7.92969H13.3437C13.2234 7.92969 13.125 8.03164 13.125 8.15625V15.9557C13.125 16.0293 13.1578 16.0973 13.2152 16.1397L17.7379 19.5552C17.8363 19.6288 17.973 19.6062 18.0441 19.507L18.8262 18.4025C18.8973 18.2978 18.8754 18.1562 18.777 18.0854Z" fill="white"/>
</svg>
