<svg width="24" height="28" viewBox="0 0 24 28" fill="none" xmlns="http://www.w3.org/2000/svg">
<g clip-path="url(#clip0_4543_488)">
<path d="M20.4054 5.31007C18.1607 3.01319 15.1714 1.74991 11.9946 1.74991C5.4375 1.74991 0.101786 7.19678 0.101786 13.8905C0.101786 16.0288 0.648214 18.1179 1.6875 19.9608L0 26.2499L6.30536 24.5601C8.04107 25.528 9.99643 26.0366 11.9893 26.0366H11.9946C18.5464 26.0366 24 20.5898 24 13.896C24 10.653 22.65 7.60694 20.4054 5.31007ZM11.9946 23.9913C10.2161 23.9913 8.475 23.5046 6.95893 22.5858L6.6 22.3671L2.86071 23.3679L3.85714 19.6437L3.62143 19.2608C2.63036 17.653 2.11071 15.7991 2.11071 13.8905C2.11071 8.32882 6.54643 3.80069 12 3.80069C14.6411 3.80069 17.1214 4.85069 18.9857 6.75928C20.85 8.66788 21.9964 11.1999 21.9911 13.896C21.9911 19.4632 17.4429 23.9913 11.9946 23.9913ZM17.4161 16.4335C17.1214 16.2804 15.6589 15.5476 15.3857 15.4491C15.1125 15.3452 14.9143 15.296 14.7161 15.6023C14.5179 15.9085 13.95 16.5866 13.7732 16.7944C13.6018 16.9968 13.425 17.0241 13.1304 16.871C11.3839 15.9796 10.2375 15.2796 9.08571 13.2616C8.78036 12.7257 9.39107 12.764 9.95893 11.6046C10.0554 11.4023 10.0071 11.2273 9.93214 11.0741C9.85714 10.921 9.2625 9.42803 9.01607 8.821C8.775 8.23038 8.52857 8.31241 8.34643 8.30147C8.175 8.29053 7.97679 8.29053 7.77857 8.29053C7.58036 8.29053 7.25893 8.3671 6.98571 8.66788C6.7125 8.97413 5.94643 9.70694 5.94643 11.1999C5.94643 12.6929 7.0125 14.1366 7.15714 14.339C7.30714 14.5413 9.25179 17.6038 12.2357 18.9218C14.1214 19.753 14.8607 19.8241 15.8036 19.6819C16.3768 19.5944 17.5607 18.9491 17.8071 18.2382C18.0536 17.5273 18.0536 16.9202 17.9786 16.7944C17.9089 16.6577 17.7107 16.5812 17.4161 16.4335Z" fill="white"/>
</g>
<defs>
<clipPath id="clip0_4543_488">
<rect width="24" height="28" fill="white"/>
</clipPath>
</defs>
</svg>
