<svg width="33" height="24" viewBox="0 0 33 24" fill="none" xmlns="http://www.w3.org/2000/svg">
<path d="M32.3287 3.77335C32.1409 3.04951 31.7739 2.3894 31.2641 1.85871C30.7544 1.32801 30.1198 0.945248 29.4234 0.748513C26.8414 0.0120024 16.5114 1.30114e-05 16.5114 1.30114e-05C16.5114 1.30114e-05 6.18313 -0.0119771 3.59941 0.69199C2.90347 0.897779 2.27015 1.28596 1.76024 1.81925C1.25033 2.35255 0.88095 3.01306 0.687566 3.73738C0.00659805 6.41965 2.41578e-06 11.9829 2.41578e-06 11.9829C2.41578e-06 11.9829 -0.00659289 17.5735 0.669429 20.2284C1.04866 21.6963 2.16162 22.8558 3.57632 23.2515C6.18478 23.988 16.4867 24 16.4867 24C16.4867 24 26.8166 24.012 29.3987 23.3097C30.0953 23.1133 30.7305 22.7315 31.2415 22.2018C31.7525 21.6722 32.1216 21.0132 32.3122 20.29C32.9948 17.6095 32.9998 12.048 32.9998 12.048C32.9998 12.048 33.0327 6.45562 32.3287 3.77335ZM13.2072 17.1367L13.2154 6.85984L21.8009 12.0069L13.2072 17.1367Z" fill="white"/>
</svg>
